<?xml version="1.0" encoding="UTF-8"?>
<svg width="120" height="120" viewBox="0 0 120 120" xmlns="http://www.w3.org/2000/svg">
  <!-- Background Circle -->
  <circle cx="60" cy="60" r="58" fill="#f0f0f0" stroke="#3b82f6" stroke-width="4"/>
  
  <!-- Pencil -->
  <g transform="translate(33, 30) rotate(45, 27, 30)">
    <!-- Pencil Body -->
    <rect x="10" y="10" width="44" height="10" rx="2" fill="#fbbf24"/>
    
    <!-- Pencil Tip -->
    <polygon points="10,10 0,15 10,20" fill="#6b7280"/>
    
    <!-- Pencil Eraser -->
    <rect x="54" y="10" width="10" height="10" rx="2" fill="#ef4444"/>
    
    <!-- Pencil Details -->
    <rect x="30" y="10" width="2" height="10" fill="#78716c"/>
    <rect x="40" y="10" width="2" height="10" fill="#78716c"/>
  </g>
  
  <!-- Magic Sparkles -->
  <g fill="#8b5cf6">
    <circle cx="30" cy="35" r="3"/>
    <circle cx="85" cy="40" r="2"/>
    <circle cx="75" cy="85" r="4"/>
    <circle cx="40" cy="90" r="2.5"/>
    <circle cx="60" cy="25" r="3"/>
  </g>
  
  <!-- Paint Splatter -->
  <path d="M70,55 Q80,40 90,55 T70,55" fill="#ec4899" fill-opacity="0.7"/>
  <path d="M40,75 Q30,60 20,75 T40,75" fill="#3b82f6" fill-opacity="0.7"/>
  
  <!-- Text Path -->
  <path id="textPath" d="M30,95 Q60,105 90,95" fill="none"/>
  <text font-family="Arial, sans-serif" font-weight="bold" font-size="14" fill="#4b5563">
    <textPath href="#textPath" startOffset="50%" text-anchor="middle">DUDEL</textPath>
  </text>
</svg>